<svg xmlns="http://www.w3.org/2000/svg" viewBox="0 0 512 512" width="512" height="512">
  <!-- Warstwa foreground adaptive icon (odpowiednik 108 dp).
       Znak wpisany w kolo bezpieczne 72 dp = skala 0,76 wzgledem kafla 512.
       Tlo dostarcza warstwa background (#080808). -->
  <defs>
    <mask id="hub-a">
      <rect width="512" height="512" fill="#fff"/>
      <circle cx="256" cy="306" r="48" fill="#000"/>
    </mask>
  </defs>
  <g transform="translate(256 256) scale(.76) translate(-245 -268)" fill="#44d62c">
    <path d="M140 197 256 117 372 197" fill="none" stroke="#44d62c" stroke-width="30" stroke-linecap="round" stroke-linejoin="round"/>
    <path d="M201 377 110 412 171 337Z" stroke="#44d62c" stroke-width="14" stroke-linejoin="round"/>
    <g mask="url(#hub-a)">
      <circle cx="256" cy="306" r="100"/>
      <rect x="237" y="186" width="38" height="38" rx="11"/>
      <rect x="237" y="186" width="38" height="38" rx="11" transform="rotate(36 256 306)"/>
      <rect x="237" y="186" width="38" height="38" rx="11" transform="rotate(72 256 306)"/>
      <rect x="237" y="186" width="38" height="38" rx="11" transform="rotate(108 256 306)"/>
      <rect x="237" y="186" width="38" height="38" rx="11" transform="rotate(144 256 306)"/>
      <rect x="237" y="186" width="38" height="38" rx="11" transform="rotate(180 256 306)"/>
      <rect x="237" y="186" width="38" height="38" rx="11" transform="rotate(216 256 306)"/>
      <rect x="237" y="186" width="38" height="38" rx="11" transform="rotate(252 256 306)"/>
      <rect x="237" y="186" width="38" height="38" rx="11" transform="rotate(288 256 306)"/>
      <rect x="237" y="186" width="38" height="38" rx="11" transform="rotate(324 256 306)"/>
    </g>
    <circle cx="228" cy="306" r="11"/>
    <circle cx="256" cy="306" r="11"/>
    <circle cx="284" cy="306" r="11"/>
  </g>
</svg>
